<svg width="42" height="42" viewBox="0 0 42 42" fill="none" xmlns="http://www.w3.org/2000/svg">
<path d="M22.5636 30.5455V28.5182H24.0682C26.6097 28.5182 28.7 26.5864 28.7 24.1818C28.7 22.3865 27.5309 20.8604 25.8865 20.1993C26.3687 19.5172 26.6545 18.6997 26.6545 17.8182C26.6545 15.5876 24.8521 13.7649 22.5636 13.515V11.4545C22.5636 10.8031 22.0041 10.3 21.3409 10.3C20.6778 10.3 20.1182 10.8031 20.1182 11.4545V13.4818H17.7909V11.4545C17.7909 10.8031 17.2313 10.3 16.5682 10.3C15.905 10.3 15.3455 10.8031 15.3455 11.4545V13.4818H14.5227C13.8596 13.4818 13.3 13.985 13.3 14.6364C13.3 15.2878 13.8596 15.7909 14.5227 15.7909H15.3455V26.2091H14.5227C13.8596 26.2091 13.3 26.7122 13.3 27.3636C13.3 28.015 13.8596 28.5182 14.5227 28.5182H15.3455V30.5455C15.3455 31.1969 15.905 31.7 16.5682 31.7C17.2313 31.7 17.7909 31.1969 17.7909 30.5455V28.5182H20.1182V30.5455C20.1182 31.1969 20.6778 31.7 21.3409 31.7C22.0041 31.7 22.5636 31.1969 22.5636 30.5455ZM17.7909 15.7909H22.0227C23.2414 15.7909 24.2091 16.7132 24.2091 17.8182C24.2091 18.9231 23.2414 19.8455 22.0227 19.8455H17.7909V15.7909ZM17.7909 26.2091V22.1545H24.0682C25.2869 22.1545 26.2545 23.0769 26.2545 24.1818C26.2545 25.2868 25.2869 26.2091 24.0682 26.2091H17.7909Z" fill="#111029" stroke="#111029" stroke-width="0.4"/>
<path fill-rule="evenodd" clip-rule="evenodd" d="M21 3C11.0589 3 3 11.0589 3 21C3 30.9411 11.0589 39 21 39C30.9411 39 39 30.9411 39 21C39 11.0589 30.9411 3 21 3ZM0 21C0 9.40202 9.40202 0 21 0C32.598 0 42 9.40202 42 21C42 32.598 32.598 42 21 42C9.40202 42 0 32.598 0 21Z" fill="#111029"/>
</svg>
