<svg width="42" height="42" viewBox="0 0 42 42" fill="none" xmlns="http://www.w3.org/2000/svg">
<path d="M21.0004 30.0987V25.2964" stroke="#111029" stroke-width="3" stroke-linecap="round" stroke-linejoin="round"/>
<path fill-rule="evenodd" clip-rule="evenodd" d="M32.7266 8.62061C35.9256 8.62061 38.5 11.2139 38.5 14.4129V20.9246C33.8434 23.6504 27.6915 25.2972 20.9905 25.2972C14.2896 25.2972 8.15657 23.6504 3.5 20.9246V14.394C3.5 11.195 6.09329 8.62061 9.29232 8.62061H32.7266Z" stroke="#111029" stroke-width="3" stroke-linecap="round" stroke-linejoin="round"/>
<path d="M27.6257 8.61248V7.91967C27.6257 5.61031 25.7517 3.73633 23.4423 3.73633H18.5586C16.2492 3.73633 14.3752 5.61031 14.3752 7.91967V8.61248" stroke="#111029" stroke-width="3" stroke-linecap="round" stroke-linejoin="round"/>
<path d="M3.54639 27.8389L3.90415 32.5882C4.14644 35.7891 6.81356 38.2632 10.022 38.2632H31.978C35.1865 38.2632 37.8536 35.7891 38.0959 32.5882L38.4536 27.8389" stroke="#111029" stroke-width="3" stroke-linecap="round" stroke-linejoin="round"/>
</svg>
