<svg width="42" height="42" viewBox="0 0 42 42" fill="none" xmlns="http://www.w3.org/2000/svg">
<path fill-rule="evenodd" clip-rule="evenodd" d="M30.9945 24.5343C32.2714 24.5343 33.3431 25.5881 33.1479 26.849C32.0025 34.2673 25.6519 39.7753 17.9926 39.7753C9.51852 39.7753 2.65002 32.9068 2.65002 24.4347C2.65002 17.4546 7.95279 10.9527 13.9229 9.48254C15.2058 9.16581 16.5205 10.0682 16.5205 11.3889C16.5205 20.3371 16.8213 22.6518 18.5205 23.9108C20.2197 25.1697 22.2177 24.5343 30.9945 24.5343Z" stroke="#111029" stroke-width="3" stroke-linecap="round" stroke-linejoin="round"/>
<path fill-rule="evenodd" clip-rule="evenodd" d="M39.349 17.0827C39.4506 11.3337 32.3889 2.06679 23.7834 2.22615C23.114 2.2381 22.5782 2.79587 22.5483 3.4632C22.3312 8.19027 22.624 14.3157 22.7873 17.0926C22.8371 17.9572 23.5164 18.6364 24.379 18.6862C27.2335 18.8496 33.5821 19.0727 38.2415 18.3675C38.8749 18.2719 39.3391 17.7221 39.349 17.0827Z" stroke="#111029" stroke-width="3" stroke-linecap="round" stroke-linejoin="round"/>
</svg>
