<svg width="138" height="46" viewBox="0 0 138 46" fill="none" xmlns="http://www.w3.org/2000/svg">
<path d="M71.3372 17.3497L73.2053 6.40763H76.5717L74.3533 19.4948H68.5351L66.5698 9.28091L64.6239 19.4948H58.8251L56.5873 6.40763H59.9537L61.8218 17.3497L64.0206 6.40763H69.1189L71.3372 17.3497Z" fill="white"/>
<path d="M82.2178 19.8097C78.2676 19.8097 76.8471 17.2513 76.8471 14.5552C76.8471 11.7016 78.4817 9.33995 82.2178 9.33995C86.1874 9.33995 87.4523 11.8787 87.4523 14.6142C87.4523 14.9291 87.4328 15.2243 87.3939 15.4408H80.0968C80.2914 17.0152 81.0697 17.5465 82.2956 17.5465C83.2881 17.5465 83.8913 17.1136 84.1637 16.5232H87.4134C87.102 18.2156 85.7593 19.8097 82.2178 19.8097ZM80.1357 13.4728H84.2805C84.1637 12.2329 83.5605 11.5638 82.2762 11.5638C81.0503 11.5638 80.3498 12.0558 80.1357 13.4728Z" fill="white"/>
<path d="M95.6229 9.33995C98.8142 9.33995 100.079 11.8196 100.079 14.5552C100.079 17.3694 98.8142 19.8097 95.6229 19.8097C93.9689 19.8097 92.8597 19.1996 92.1981 18.1369V19.4948H88.8512V5.71883H92.1981V11.0128C92.8597 9.96971 93.9689 9.33995 95.6229 9.33995ZM92.1981 14.5748C92.1981 16.3264 92.7819 17.1726 94.4943 17.1726C96.1483 17.1726 96.7321 16.4051 96.7321 14.5748C96.7321 12.7446 96.1483 11.9771 94.4943 11.9771C92.7819 11.9771 92.1981 12.8233 92.1981 14.5748Z" fill="white"/>
<path d="M104.678 15.2243C104.756 16.6019 105.632 17.2907 107.033 17.2907C108.453 17.2907 109.29 16.5625 109.29 15.244C109.29 13.886 108.356 13.1776 107.188 13.1776C106.313 13.1776 105.768 13.394 105.203 13.6892L103.997 11.5835L108.278 9.10379H101.818V6.40763H112.072V9.10379L107.616 11.7016C107.947 11.6425 108.317 11.5835 109.037 11.5835C110.38 11.5835 112.851 12.2132 112.851 15.3424C112.851 18.0188 111.119 19.8097 107.071 19.8097C103.374 19.8097 101.273 18.2353 101.234 15.2243H104.678Z" fill="white"/>
<path d="M57.3267 39.412V26.3248H60.7904V36.6765H66.6087V39.412H57.3267Z" fill="white"/>
<path d="M68.0032 39.412V29.572H71.3501V39.412H68.0032ZM67.9448 28.3715V26.3248H71.428V28.3715H67.9448Z" fill="white"/>
<path d="M74.2418 39.412V32.1107H72.471V30.5363L74.2418 29.5523V28.9029C74.2418 26.9349 75.2342 25.636 77.686 25.636H80.3519V28.0763H77.0828V29.572H79.8654V32.1107H77.5887V39.412H74.2418Z" fill="white"/>
<path d="M85.7714 39.7269C81.8212 39.7269 80.4007 37.1685 80.4007 34.4723C80.4007 31.6187 82.0352 29.2571 85.7714 29.2571C89.741 29.2571 91.0058 31.7959 91.0058 34.5314C91.0058 34.8463 90.9864 35.1415 90.9474 35.3579H83.6503C83.8449 36.9323 84.6233 37.4637 85.8492 37.4637C86.8416 37.4637 87.4448 37.0307 87.7172 36.4403H90.9669C90.6556 38.1328 89.3129 39.7269 85.7714 39.7269ZM83.6892 33.3899H87.834C87.7173 32.1501 87.114 31.481 85.8297 31.481C84.6038 31.481 83.9033 31.973 83.6892 33.3899Z" fill="white"/>
<path d="M94.7593 36.2435C94.8371 37.0504 95.4987 37.6999 96.7441 37.6999C97.8338 37.6999 98.2619 37.3456 98.2619 36.7749C98.2619 36.2829 98.0868 35.8696 96.9581 35.7319L94.8955 35.4957C93.008 35.2792 91.9961 34.2559 91.9961 32.5437C91.9961 30.2018 93.9809 29.2571 96.5884 29.2571C99.2738 29.2571 101.142 30.1821 101.336 32.4847H98.3008C98.2035 31.7171 97.6781 31.2645 96.6079 31.2645C95.4793 31.2645 95.0512 31.6778 95.0512 32.2288C95.0512 32.6421 95.2847 33.016 96.1992 33.1144L98.2035 33.3112C100.5 33.5474 101.453 34.492 101.453 36.3813C101.453 38.2509 100.305 39.7269 96.6857 39.7269C93.1247 39.7269 91.8015 38.0541 91.7237 36.2435H94.7593Z" fill="white"/>
<path d="M107.661 39.412C104.684 39.412 103.75 38.0738 103.75 35.5351V32.1107H102.037V30.5363L104.022 29.6507L105.404 27.1907H107.097V29.572H109.743V32.1107H107.097V36.7355H109.432V39.412H107.661Z" fill="white"/>
<path d="M110.886 43.348V40.6715H115.089L115.576 39.1365H113.454L110.302 29.572H113.707L115.614 35.2792L116.159 37.0898L116.665 35.2792L118.455 29.572H121.627L118.533 39.412C117.755 41.9704 116.743 43.348 113.707 43.348H110.886Z" fill="white"/>
<path d="M122.6 39.412V25.636H125.947V39.412H122.6Z" fill="white"/>
<path d="M132.766 39.7269C128.815 39.7269 127.395 37.1685 127.395 34.4723C127.395 31.6187 129.029 29.2571 132.766 29.2571C136.735 29.2571 138 31.7959 138 34.5314C138 34.8463 137.981 35.1415 137.942 35.3579H130.645C130.839 36.9323 131.617 37.4637 132.843 37.4637C133.836 37.4637 134.439 37.0307 134.711 36.4403H137.961C137.65 38.1328 136.307 39.7269 132.766 39.7269ZM130.683 33.3899H134.828C134.711 32.1501 134.108 31.481 132.824 31.481C131.598 31.481 130.897 31.973 130.683 33.3899Z" fill="white"/>
<path d="M45.4833 14.8136V20.2712C45.4833 21.1324 44.7931 21.8305 43.9415 21.8305H25.4398C24.5883 21.8305 23.898 21.1324 23.898 20.2712V14.8136L27.7525 10.9153L23.898 7.01695V1.55932C23.898 0.698131 24.5883 0 25.4398 0H43.9415C44.7931 0 45.4833 0.698132 45.4833 1.55932V7.01695L33.1489 7.01695L37.0034 10.9153L33.1489 14.8136H45.4833Z" fill="white"/>
<path fill-rule="evenodd" clip-rule="evenodd" d="M2.78747e-06 44.4407C2.78747e-06 45.3019 0.690294 46 1.54181 46H20.0435C20.895 46 21.5853 45.3019 21.5853 44.4407V38.983L17.7308 35.0847L21.5853 31.1864V25.7288C21.5853 24.8676 20.895 24.1695 20.0435 24.1695H1.54181C0.690294 24.1695 2.78747e-06 24.8676 2.78747e-06 25.7288V44.4407ZM10.7927 35.0847L14.6472 38.983H6.16724V31.1864H14.6472L10.7927 35.0847Z" fill="white"/>
<path d="M23.898 38.983V44.4407C23.898 45.3019 24.5883 46 25.4398 46H43.9415C44.7931 46 45.4834 45.3019 45.4834 44.4407V38.983L41.6288 35.0847L45.4834 31.1864V25.7288C45.4834 24.8676 44.7931 24.1695 43.9415 24.1695H25.4398C24.5883 24.1695 23.898 24.8676 23.898 25.7288V31.1864H36.2325L32.378 35.0847L36.2325 38.983H23.898Z" fill="white"/>
<path d="M14.6472 1.35073e-06L20.0435 3.00163e-07C20.895 1.34387e-07 21.5853 0.698132 21.5853 1.55932L21.5853 20.2712C21.5853 21.1324 20.895 21.8305 20.0435 21.8305H14.6472L10.7927 17.9322L6.93814 21.8305L1.54181 21.8305C0.690293 21.8305 2.69147e-06 21.1324 2.57305e-06 20.2712L0 1.55933C-1.18421e-07 0.698136 0.690291 3.27648e-06 1.54181 3.11071e-06L6.93814 2.06014e-06L6.93814 12.4746L10.7927 8.57627L14.6472 12.4746L14.6472 1.35073e-06Z" fill="white"/>
</svg>
