<svg width="70" height="84" viewBox="0 0 70 84" fill="none" xmlns="http://www.w3.org/2000/svg">
<path d="M54.6532 30.5902V21.3557C54.5196 10.5313 45.6123 1.86831 34.7668 2.00152C24.141 2.13473 15.5481 10.6688 15.3672 21.2698V30.5902" stroke="#111029" stroke-width="4" stroke-linecap="round" stroke-linejoin="round"/>
<path fill-rule="evenodd" clip-rule="evenodd" d="M35.0125 49.0137C36.1197 49.0137 37.0172 49.9091 37.0172 51.0137V60.5576C37.0172 61.6621 36.1197 62.5576 35.0125 62.5576C33.9053 62.5576 33.0078 61.6621 33.0078 60.5576V51.0137C33.0078 49.9091 33.9053 49.0137 35.0125 49.0137Z" fill="#111029"/>
<path fill-rule="evenodd" clip-rule="evenodd" d="M7.95202 32.4487C13.6889 27.7629 22.572 26.1011 34.9978 26.1011C47.4238 26.1011 56.3078 27.7629 62.0457 32.4485C67.9076 37.2354 70 44.7447 70 55.0483C70 65.3539 67.9077 72.8643 62.0458 77.6518C56.3078 82.338 47.4238 83.9998 34.9978 83.9998C22.572 83.9998 13.6888 82.338 7.95192 77.6516C2.09113 72.8641 0 65.3537 0 55.0483C0 44.745 2.09119 37.2357 7.95202 32.4487ZM10.4919 35.5437C6.04234 39.178 4.00938 45.1423 4.00938 55.0483C4.00938 64.9566 6.0424 70.922 10.492 74.5567C15.0654 78.2927 22.6789 79.9998 34.9978 79.9998C47.3168 79.9998 54.9314 78.2927 59.506 74.5566C63.9566 70.9217 65.9906 64.9563 65.9906 55.0483C65.9906 45.1426 63.9567 39.1782 59.5061 35.5438C54.9315 31.8082 47.3168 30.1011 34.9978 30.1011C22.6789 30.1011 15.0654 31.8082 10.4919 35.5437Z" fill="#111029"/>
</svg>
