<svg width="39" height="13" viewBox="0 0 39 13" fill="none" xmlns="http://www.w3.org/2000/svg">
<path d="M20.1605 4.90318L20.6884 1.81085H21.6398L21.0129 5.50941H19.3686L18.8132 2.62287L18.2633 5.50941H16.6245L15.9921 1.81085H16.9434L17.4714 4.90318L18.0928 1.81085H19.5336L20.1605 4.90318Z" fill="black"/>
<path d="M23.2355 5.5984C22.1191 5.5984 21.7177 4.87537 21.7177 4.11341C21.7177 3.30696 22.1796 2.63955 23.2355 2.63955C24.3573 2.63955 24.7148 3.35702 24.7148 4.1301C24.7148 4.21909 24.7093 4.30251 24.6983 4.36369H22.636C22.691 4.80863 22.911 4.9588 23.2575 4.9588C23.5379 4.9588 23.7084 4.83644 23.7854 4.66959H24.7038C24.6158 5.1479 24.2363 5.5984 23.2355 5.5984ZM22.647 3.80752H23.8184C23.7854 3.45713 23.6149 3.26803 23.252 3.26803C22.9055 3.26803 22.7075 3.40707 22.647 3.80752Z" fill="black"/>
<path d="M27.0239 2.63955C27.9258 2.63955 28.2832 3.34033 28.2832 4.11341C28.2832 4.90874 27.9258 5.5984 27.0239 5.5984C26.5564 5.5984 26.243 5.42598 26.056 5.12565V5.50941H25.1101V1.61619H26.056V3.1123C26.243 2.81753 26.5564 2.63955 27.0239 2.63955ZM26.056 4.11897C26.056 4.61397 26.221 4.85312 26.7049 4.85312C27.1723 4.85312 27.3373 4.63622 27.3373 4.11897C27.3373 3.60173 27.1723 3.38482 26.7049 3.38482C26.221 3.38482 26.056 3.62398 26.056 4.11897Z" fill="black"/>
<path d="M29.5829 4.30251C29.6049 4.69183 29.8524 4.88649 30.2483 4.88649C30.6498 4.88649 30.8862 4.68071 30.8862 4.30807C30.8862 3.92431 30.6223 3.72409 30.2923 3.72409C30.0449 3.72409 29.8909 3.78527 29.7314 3.8687L29.3904 3.27359L30.6003 2.57281H28.7745V1.81085H31.6726V2.57281L30.4133 3.30696C30.5068 3.29027 30.6113 3.27359 30.8148 3.27359C31.1942 3.27359 31.8926 3.45157 31.8926 4.33588C31.8926 5.09228 31.4032 5.5984 30.2593 5.5984C29.2145 5.5984 28.6205 5.15346 28.6096 4.30251H29.5829Z" fill="black"/>
<path d="M16.201 11.1382V7.43962H17.1799V10.3651H18.8242V11.1382H16.201Z" fill="black"/>
<path d="M19.2183 11.1382V8.35731H20.1642V11.1382H19.2183ZM19.2018 8.01804V7.43962H20.1862V8.01804H19.2018Z" fill="black"/>
<path d="M20.9814 11.1382V9.07477H20.4809V8.62983L20.9814 8.35175V8.16821C20.9814 7.61203 21.2618 7.24496 21.9547 7.24496H22.7081V7.93462H21.7843V8.35731H22.5707V9.07477H21.9272V11.1382H20.9814Z" fill="black"/>
<path d="M24.2397 11.2272C23.1234 11.2272 22.7219 10.5041 22.7219 9.74218C22.7219 8.93573 23.1839 8.26832 24.2397 8.26832C25.3616 8.26832 25.719 8.98578 25.719 9.75887C25.719 9.84785 25.7135 9.93128 25.7025 9.99246H23.6403C23.6953 10.4374 23.9153 10.5876 24.2617 10.5876C24.5422 10.5876 24.7127 10.4652 24.7897 10.2984H25.708C25.62 10.7767 25.2406 11.2272 24.2397 11.2272ZM23.6513 9.43629H24.8227C24.7897 9.0859 24.6192 8.8968 24.2562 8.8968C23.9098 8.8968 23.7118 9.03584 23.6513 9.43629Z" fill="black"/>
<path d="M26.7798 10.2427C26.8018 10.4708 26.9888 10.6543 27.3407 10.6543C27.6487 10.6543 27.7697 10.5542 27.7697 10.3929C27.7697 10.2539 27.7202 10.1371 27.4012 10.0981L26.8183 10.0314C26.2849 9.97021 25.9989 9.681 25.9989 9.19713C25.9989 8.53528 26.5598 8.26832 27.2967 8.26832C28.0556 8.26832 28.5836 8.52972 28.6385 9.18045H27.7807C27.7532 8.96354 27.6047 8.83562 27.3022 8.83562C26.9833 8.83562 26.8623 8.95241 26.8623 9.10814C26.8623 9.22494 26.9283 9.33061 27.1867 9.35842L27.7532 9.41404C28.4021 9.48078 28.6715 9.74774 28.6715 10.2817C28.6715 10.81 28.3471 11.2272 27.3242 11.2272C26.3179 11.2272 25.9439 10.7544 25.9219 10.2427H26.7798Z" fill="black"/>
<path d="M30.4259 11.1382C29.5845 11.1382 29.3205 10.76 29.3205 10.0425V9.07477H28.8366V8.62983L29.3975 8.37955L29.788 7.68434H30.2664V8.35731H31.0143V9.07477H30.2664V10.3818H30.9263V11.1382H30.4259Z" fill="black"/>
<path d="M31.3373 12.2505V11.4941H32.5252L32.6626 11.0603H32.0632L31.1723 8.35731H32.1347L32.6736 9.97021L32.8276 10.4819L32.9706 9.97021L33.4765 8.35731H34.3729L33.4985 11.1382C33.2786 11.8612 32.9926 12.2505 32.1347 12.2505H31.3373Z" fill="black"/>
<path d="M34.6479 11.1382V7.24496H35.5938V11.1382H34.6479Z" fill="black"/>
<path d="M37.5207 11.2272C36.4043 11.2272 36.0029 10.5041 36.0029 9.74218C36.0029 8.93573 36.4648 8.26832 37.5207 8.26832C38.6426 8.26832 39 8.98578 39 9.75887C39 9.84785 38.9945 9.93128 38.9835 9.99246H36.9213C36.9763 10.4374 37.1962 10.5876 37.5427 10.5876C37.8232 10.5876 37.9936 10.4652 38.0706 10.2984H38.989C38.901 10.7767 38.5216 11.2272 37.5207 11.2272ZM36.9323 9.43629H38.1036C38.0706 9.0859 37.9001 8.8968 37.5372 8.8968C37.1907 8.8968 36.9928 9.03584 36.9323 9.43629Z" fill="black"/>
<path d="M12.854 4.18644V5.72881C12.854 5.97219 12.6589 6.16949 12.4183 6.16949H7.18952C6.94887 6.16949 6.75379 5.97219 6.75379 5.72881V4.18644L7.84311 3.08475L6.75379 1.98305V0.440678C6.75379 0.197298 6.94887 0 7.18952 0H12.4183C12.6589 0 12.854 0.197298 12.854 0.440678V1.98305L9.36816 1.98305L10.4575 3.08475L9.36816 4.18644H12.854Z" fill="black"/>
<path fill-rule="evenodd" clip-rule="evenodd" d="M7.87763e-07 12.5593C7.87763e-07 12.8027 0.195083 13 0.435729 13H5.66447C5.90512 13 6.1002 12.8027 6.1002 12.5593V11.0169L5.01088 9.91525L6.1002 8.81356V7.27119C6.1002 7.02781 5.90512 6.83051 5.66447 6.83051H0.435729C0.195083 6.83051 7.87763e-07 7.02781 7.87763e-07 7.27119V12.5593ZM3.0501 9.91525L4.13942 11.0169H1.74291V8.81356H4.13942L3.0501 9.91525Z" fill="black"/>
<path d="M6.75379 11.0169V12.5593C6.75379 12.8027 6.94887 13 7.18952 13H12.4183C12.6589 13 12.854 12.8027 12.854 12.5593V11.0169L11.7647 9.91525L12.854 8.81356V7.27119C12.854 7.02781 12.6589 6.83051 12.4183 6.83051H7.18952C6.94887 6.83051 6.75379 7.02781 6.75379 7.27119V8.81356H10.2396L9.1503 9.91525L10.2396 11.0169H6.75379Z" fill="black"/>
<path d="M4.13942 3.81729e-07L5.66447 8.48286e-08C5.90512 3.7979e-08 6.1002 0.197298 6.1002 0.440678L6.1002 5.72881C6.1002 5.97219 5.90512 6.16949 5.66447 6.16949H4.13942L3.0501 5.0678L1.96078 6.16949L0.435729 6.16949C0.195083 6.16949 7.60633e-07 5.97219 7.27166e-07 5.72881L0 0.440679C-3.34669e-08 0.197299 0.195082 9.25962e-07 0.435728 8.79113e-07L1.96078 5.82212e-07L1.96078 3.52542L3.0501 2.42373L4.13942 3.52542L4.13942 3.81729e-07Z" fill="black"/>
</svg>
